<svg xmlns="http://www.w3.org/2000/svg" viewBox="0 0 356 28"><defs><style>.cls-1{fill:#231f20;stroke:#231f20;stroke-miterlimit:10;stroke-width:0.5px;}</style></defs><title>Logo 2 copy</title><g id="Logo_1" data-name="Logo 1"><g id="Layer_7" data-name="Layer 7"><polygon class="cls-1" points="279.31 6.22 280.4 3.39 280.38 3.35 278.22 3.35 270.04 24.61 272.23 24.61 279.3 6.19 279.31 6.22"/><polygon class="cls-1" points="282.48 8.21 281.4 11.04 286.37 24.61 288.56 24.61 282.48 8.21"/><rect class="cls-1" x="39.91" y="3.19" width="6.52" height="2.04"/><rect class="cls-1" x="39.91" y="13.01" width="5.25" height="2.04"/><polygon class="cls-1" points="36.33 22.42 36.33 15.04 36.33 15.04 36.33 13.01 36.33 13.01 36.33 5.23 36.33 5.23 36.33 3.19 34.29 3.19 34.29 24.46 46.76 24.46 46.76 22.42 36.33 22.42"/><rect class="cls-1" x="64.53" y="3.19" width="2.04" height="15.65"/><polygon class="cls-1" points="66.57 22.42 64.53 22.42 64.53 24.46 75.58 24.46 75.58 22.42 66.57 22.42 66.57 22.42"/><rect class="cls-1" x="207.5" y="3.19" width="2.04" height="21.27"/><polygon class="cls-1" points="221.21 3.19 221.21 12.95 213.13 12.95 213.13 14.86 221.21 14.86 221.21 24.46 223.25 24.46 223.25 3.19 221.21 3.19"/><path class="cls-1" d="M252.79,18a5.5,5.5,0,0,1-10.95-.71V3.19h-2V17.27a7.53,7.53,0,0,0,15,.71Z"/><rect class="cls-1" x="252.83" y="3.19" width="2.04" height="11.21"/><rect class="cls-1" x="304.81" y="3.19" width="2.02" height="21.27"/><polygon class="cls-1" points="317.74 3.19 317.74 20.88 310.33 8.67 310.33 12.38 317.68 24.46 319.78 24.46 319.78 3.19 317.74 3.19"/><rect class="cls-1" x="151.18" y="3.19" width="2.02" height="21.27"/><polygon class="cls-1" points="164.11 3.19 164.11 20.88 156.7 8.67 156.7 12.38 164.05 24.46 166.15 24.46 166.15 3.19 164.11 3.19"/><rect class="cls-1" x="3.51" y="3.19" width="2.02" height="21.27"/><polygon class="cls-1" points="16.44 3.19 16.44 20.88 9.03 8.67 9.03 12.38 16.38 24.46 18.48 24.46 18.48 3.19 16.44 3.19"/><path class="cls-1" d="M95.54,14.07V12c-2.53-.74-2.88-2.19-2.88-3.23C92.66,6.49,94.94,5,97.29,5c2.62,0,4.63,1.58,4.63,4h2c0-3.71-2.9-6.09-6.67-6.09-3.4,0-6.67,2.35-6.67,5.81C90.62,10.53,91.21,13.06,95.54,14.07Z"/><path class="cls-1" d="M99,12.78v2.11c2.16.62,3.87,1.93,3.5,4.35-.34,1.67-2,3.49-5.22,3.49a4.64,4.64,0,0,1-4.85-4.38h-2a6.68,6.68,0,0,0,6.88,6.42c4.38,0,6.73-2.69,7.22-5.16C105.16,15.57,102.4,13.57,99,12.78Z"/><path class="cls-1" d="M119.34,19a8.61,8.61,0,0,1,12-12l1.46-1.46a10.65,10.65,0,0,0-14.91,14.91Z"/><path class="cls-1" d="M135.27,8,133.8,9.46a8.6,8.6,0,0,1-12,12l-1.46,1.47A10.65,10.65,0,0,0,135.27,8Z"/><path class="cls-1" d="M336,12.36a8.64,8.64,0,0,1,8.55-7.45,8.49,8.49,0,0,1,5.37,1.89l1.45-1.45a10.57,10.57,0,0,0-6.82-2.49,10.71,10.71,0,0,0-10.62,9.5Z"/><path class="cls-1" d="M346,14v1.92h6.23c-.25,4.25-3,6.82-7.63,6.82a8.61,8.61,0,0,1-8.44-6.81H334a10.69,10.69,0,0,0,10.53,8.86c6.08,0,9.93-3.54,9.93-10.79Z"/></g></g></svg>